<?xml version="1.0" encoding="UTF-8" standalone="no"?>
<svg
   aria-hidden="true"
   role="img"
   class="iconify iconify--logos"
   width="31.88"
   height="32"
   preserveAspectRatio="xMidYMid meet"
   viewBox="0 0 256 257"
   version="1.1"
   id="svg20"
   sodipodi:docname="vite.svg"
   inkscape:version="1.1.2 (0a00cf5339, 2022-02-04)"
   xmlns:inkscape="http://www.inkscape.org/namespaces/inkscape"
   xmlns:sodipodi="http://sodipodi.sourceforge.net/DTD/sodipodi-0.dtd"
   xmlns:xlink="http://www.w3.org/1999/xlink"
   xmlns="http://www.w3.org/2000/svg"
   xmlns:svg="http://www.w3.org/2000/svg">
  <sodipodi:namedview
     id="namedview22"
     pagecolor="#505050"
     bordercolor="#eeeeee"
     borderopacity="1"
     inkscape:pageshadow="0"
     inkscape:pageopacity="0"
     inkscape:pagecheckerboard="0"
     showgrid="false"
     inkscape:zoom="10.616781"
     inkscape:cx="13.657624"
     inkscape:cy="18.084578"
     inkscape:current-layer="svg20" />
  <defs
     id="defs14">
    <linearGradient
       inkscape:collect="always"
       id="linearGradient8725">
      <stop
         style="stop-color:#726cff;stop-opacity:0.98823529"
         offset="0"
         id="stop8721" />
      <stop
         style="stop-color:#4400f7;stop-opacity:0.98039216"
         offset="1"
         id="stop8723" />
    </linearGradient>
    <linearGradient
       inkscape:collect="always"
       id="linearGradient1251">
      <stop
         style="stop-color:#74e1ff;stop-opacity:1"
         offset="0"
         id="stop1247" />
      <stop
         style="stop-color:#7139ff;stop-opacity:0.98228544"
         offset="1"
         id="stop1249" />
    </linearGradient>
    <linearGradient
       id="IconifyId1813088fe1fbc01fb466"
       x1="-.828%"
       x2="57.636%"
       y1="7.652%"
       y2="78.411%">
      <stop
         offset="0%"
         stop-color="#41D1FF"
         id="stop2" />
      <stop
         offset="100%"
         stop-color="#BD34FE"
         id="stop4" />
    </linearGradient>
    <linearGradient
       id="IconifyId1813088fe1fbc01fb467"
       x1="43.376%"
       x2="50.316%"
       y1="2.242%"
       y2="89.03%">
      <stop
         offset="0%"
         stop-color="#FFEA83"
         id="stop7" />
      <stop
         offset="8.333%"
         stop-color="#FFDD35"
         id="stop9" />
      <stop
         offset="100%"
         stop-color="#FFA800"
         id="stop11" />
    </linearGradient>
    <linearGradient
       inkscape:collect="always"
       xlink:href="#linearGradient1251"
       id="linearGradient1253"
       x1="74.659218"
       y1="56.264961"
       x2="178.24875"
       y2="181.95335"
       gradientUnits="userSpaceOnUse"
       gradientTransform="matrix(0.6398718,0,0,0.6398718,46.097653,46.154334)" />
    <linearGradient
       inkscape:collect="always"
       xlink:href="#linearGradient8725"
       id="linearGradient8432"
       gradientUnits="userSpaceOnUse"
       gradientTransform="matrix(0.07967275,0,0,0.07967275,5.742042,5.7468431)"
       x1="143.70151"
       y1="105.61266"
       x2="194.12904"
       y2="215.91013" />
    <linearGradient
       inkscape:collect="always"
       xlink:href="#linearGradient1251"
       id="linearGradient10114"
       gradientUnits="userSpaceOnUse"
       gradientTransform="matrix(0.07967275,0,0,0.07967275,5.742042,5.7468431)"
       x1="74.659218"
       y1="56.264961"
       x2="178.24875"
       y2="181.95335" />
  </defs>
  <g
     id="g12224"
     transform="matrix(1.0373757,-0.52554189,0.52554189,1.0373757,-72.139315,62.480928)"
     style="stroke-width:0.859917">
    <circle
       style="fill:url(#linearGradient1253);fill-opacity:1;stroke:none;stroke-width:26.1054;stroke-linecap:round;stroke-linejoin:round;stroke-opacity:0.238064;paint-order:markers stroke fill;stop-color:#000000"
       id="path1131"
       cx="128.00134"
       cy="128.16084"
       r="64.529274" />
    <path
       id="circle8430"
       style="fill:url(#linearGradient8432);fill-opacity:1;stroke:none;stroke-width:3.25047;stroke-linecap:round;stroke-linejoin:round;stroke-opacity:0.238064;paint-order:markers stroke fill;stop-color:#000000"
       d="m 21.820312,10.509766 a 11.27498,11.27498 0 0 1 0.04102,0.705078 11.27498,11.27498 0 0 1 -10.509766,11.154297 8.0347734,8.0347734 0 0 0 4.587891,1.623047 8.0347734,8.0347734 0 0 0 8.035156,-8.035157 8.0347734,8.0347734 0 0 0 -2.154297,-5.447265 z"
       transform="matrix(8.03125,0,0,8.03125,-0.01812163,0)" />
    <path
       id="circle1863"
       style="font-variation-settings:normal;opacity:1;vector-effect:none;fill:url(#linearGradient10114);fill-opacity:1;stroke:none;stroke-width:3.25047;stroke-linecap:round;stroke-linejoin:round;stroke-miterlimit:4;stroke-dasharray:none;stroke-dashoffset:0;stroke-opacity:0.238064;-inkscape-stroke:none;paint-order:markers stroke fill;stop-color:#000000;stop-opacity:1"
       d="m 8.8300781,12.439453 a 14.86658,4.0108847 0 0 0 -7.7558593,3.517578 14.86658,4.0108847 0 0 0 14.8652342,4.011719 14.86658,4.0108847 0 0 0 14.867188,-4.011719 14.86658,4.0108847 0 0 0 -7.705079,-3.509765 8.0347734,8.0347734 0 0 1 0.386719,1.208984 11.081055,3.1532824 0 0 1 3.533203,2.300781 11.081055,3.1532824 0 0 1 -11.082031,3.154297 11.081055,3.1532824 0 0 1 -11.080078,-3.154297 11.081055,3.1532824 0 0 1 3.5761719,-2.3125 8.0347734,8.0347734 0 0 1 0.3945312,-1.205078 z"
       transform="matrix(8.03125,0,0,8.03125,-0.01812163,0)" />
  </g>
</svg>
